<svg width="17" height="17" viewBox="0 0 17 17" fill="none" xmlns="http://www.w3.org/2000/svg">
<g clip-path="url(#clip0_74_6151)">
<path d="M8.5 0C10.8081 0 11.0987 0.0097571 12.0098 0.046875C12.9172 0.0873906 13.5344 0.233221 14.0742 0.442383C14.6309 0.661681 15.1068 0.951553 15.5791 1.42383C16.0515 1.8962 16.3456 2.36863 16.5615 2.92871C16.7707 3.47198 16.9156 4.08981 16.9561 4.99414C16.9965 5.90177 17.0068 6.18864 17.0068 8.5C17.0068 10.8114 16.9965 11.0982 16.9561 12.0059C16.9156 12.9136 16.7707 13.5314 16.5615 14.0713C16.3422 14.628 16.0515 15.1038 15.5791 15.5762C15.1068 16.0484 14.6343 16.3417 14.0742 16.5576C13.531 16.7668 12.9138 16.9126 12.0098 16.9531C11.1021 16.9936 10.8144 17.0029 8.50293 17.0029C6.19191 17.0029 5.90471 16.9936 4.99707 16.9531C4.08963 16.9126 3.47241 16.7668 2.93262 16.5576C2.37595 16.3383 1.90006 16.0484 1.42773 15.5762C0.955371 15.1038 0.661265 14.6314 0.445312 14.0713C0.236102 13.528 0.0912735 12.9102 0.0507812 12.0059C0.0102922 11.0982 1.67306e-09 10.808 0 8.5C0 6.19194 0.010289 5.9014 0.0507812 4.99707C0.0912882 4.08973 0.236192 3.47237 0.445312 2.93262C0.664646 2.37585 0.955325 1.90014 1.42773 1.42773C1.90014 0.955325 2.37247 0.661271 2.93262 0.445312C3.47244 0.236164 4.08998 0.0912661 4.99414 0.0507812C5.90178 0.0102922 6.19202 1.72883e-08 8.5 0ZM8.5 4.13672C6.09084 4.13672 4.134 6.09044 4.13379 8.50293C4.13379 10.9156 6.08734 12.8701 8.5 12.8701C10.9127 12.8701 12.8662 10.9156 12.8662 8.50293C12.866 6.09045 10.9125 4.13672 8.5 4.13672ZM8.5 5.66504C10.0657 5.66504 11.334 6.9343 11.334 8.5C11.334 10.0657 10.0657 11.334 8.5 11.334C6.93432 11.334 5.66605 10.0657 5.66602 8.5C5.66602 6.9343 6.9343 5.66504 8.5 5.66504ZM13.0391 2.94238C12.4763 2.94238 12.0195 3.39911 12.0195 3.96191C12.0198 4.52452 12.4764 4.98047 13.0391 4.98047C13.6015 4.98021 14.0574 4.52436 14.0576 3.96191C14.0576 3.39926 13.6017 2.94264 13.0391 2.94238Z" fill="white"/>
</g>
<defs>
<clipPath id="clip0_74_6151">
<rect width="17" height="17" fill="white"/>
</clipPath>
</defs>
</svg>
