<svg width="24" height="24" viewBox="0 0 24 24" fill="none" xmlns="http://www.w3.org/2000/svg">
<path d="M12 4.6875C12.0189 4.6875 18.3401 4.68812 19.9229 5.12109C20.7902 5.35462 21.4745 6.03887 21.708 6.90625C22.139 8.48156 22.1252 11.7541 22.125 11.793C22.125 11.793 22.125 15.0794 21.708 16.6641C21.4745 17.5314 20.7902 18.2157 19.9229 18.4492C18.34 18.8655 12.0188 18.8662 12 18.8662C12 18.8662 5.6788 18.8653 4.07715 18.4316C3.20982 18.1981 2.52556 17.5148 2.29199 16.6475C1.87498 15.0795 1.875 11.7764 1.875 11.7764C1.87501 11.7422 1.87724 8.48266 2.29199 6.90625C2.52552 6.03887 3.22645 5.33802 4.07715 5.10449C5.66232 4.68757 12 4.6875 12 4.6875ZM9.98145 14.6963L15.2529 11.6611L9.98145 8.625V14.6963Z" fill="white"/>
</svg>
