<svg width="16" height="16" viewBox="0 0 16 16" fill="none" xmlns="http://www.w3.org/2000/svg">
<path d="M13.3335 2.66699H2.66683C1.9335 2.66699 1.34016 3.26699 1.34016 4.00033L1.3335 12.0003C1.3335 12.7337 1.9335 13.3337 2.66683 13.3337H13.3335C14.0668 13.3337 14.6668 12.7337 14.6668 12.0003V4.00033C14.6668 3.26699 14.0668 2.66699 13.3335 2.66699ZM13.3335 5.02032C13.3335 5.21525 13.2331 5.39642 13.0678 5.49973L8.53016 8.33574C8.20589 8.53841 7.79443 8.53841 7.47016 8.33574L2.93254 5.49973C2.76724 5.39642 2.66683 5.21525 2.66683 5.02032C2.66683 4.57629 3.15525 4.30559 3.53179 4.54092L7.47016 7.00241C7.79443 7.20508 8.20589 7.20508 8.53016 7.00241L12.4685 4.54092C12.8451 4.30559 13.3335 4.57629 13.3335 5.02032Z" fill="#54565A"/>
</svg>
