<svg width="16" height="16" viewBox="0 0 16 16" fill="none" xmlns="http://www.w3.org/2000/svg">
<path d="M13.34 10.2533C12.52 10.2533 11.7267 10.12 10.9867 9.88C10.7533 9.8 10.4933 9.86 10.3133 10.04L9.76197 10.7318C9.47198 11.0957 8.9663 11.2161 8.56581 10.9792C7.16847 10.1528 5.89058 8.90692 5.03883 7.47894C4.80601 7.08861 4.91462 6.5946 5.2607 6.29999L5.97333 5.69333C6.15333 5.50667 6.20667 5.24667 6.13333 5.01333C5.88667 4.27333 5.76 3.48 5.76 2.66C5.76 2.3 5.46 2 5.1 2H2.79333C2.43333 2 2 2.16 2 2.66C2 8.85333 7.15333 14 13.34 14C13.8133 14 14 13.58 14 13.2133V10.9133C14 10.5533 13.7 10.2533 13.34 10.2533Z" fill="#54565A"/>
</svg>
