<svg width="200" height="34" viewBox="0 0 200 34" fill="none" xmlns="http://www.w3.org/2000/svg">
<g clip-path="url(#clip0_74_5855)">
<path d="M28.9946 18.2833C28.9946 15.1615 28.9273 13.2846 28.7873 12.6534C28.6493 12.0227 28.2732 11.5435 27.6517 11.2211C27.0346 10.8977 25.6546 10.7351 23.5132 10.7351H22.5946V6.03346C26.8395 5.04142 30.1137 3.05538 32.4259 0.0777789C31.6369 -0.037797 30.8404 -0.0944477 30.0429 -0.0917017H0V34.2515H28.9946V18.2833ZM40.5483 4.72437C39.8787 3.8896 39.1104 3.13884 38.26 2.48849V31.7375C38.9651 31.183 39.6162 30.5634 40.2049 29.8869C43.0327 26.6599 44.4478 22.5213 44.4478 17.4588C44.4478 12.1781 43.1488 7.93281 40.5483 4.72437ZM61.8693 10.5753C64.2083 10.5753 66.062 11.1982 67.4371 12.4489C68.8073 13.6947 69.4961 15.3607 69.4961 17.4344C69.4961 19.4025 68.7278 20.994 67.1961 22.215C65.8649 23.2786 64.2268 23.8065 62.2873 23.8065H53.4366V10.5753H61.8693ZM62.0698 20.8153C63.1264 20.8153 64.021 20.4753 64.761 19.8042C65.501 19.1278 65.8732 18.3257 65.8732 17.3935C65.8732 16.3041 65.5127 15.3943 64.7912 14.6638C64.0732 13.9328 63.1581 13.5641 62.0478 13.5641H56.9215V20.8158H62.0698V20.8153ZM86.0883 23.8065H72.3878V10.5753H85.6132V13.5641H75.8712V15.7167H82.4859V18.7075H75.8712V20.8158H86.0883V23.8065ZM102.069 14.5523C100.169 13.6352 98.2722 13.1799 96.3878 13.1799C93.9678 13.1799 92.7615 13.6002 92.7615 14.4486C92.7615 14.9214 93.1776 15.2273 94.0083 15.3734C95.2098 15.4888 96.4181 15.6023 97.6351 15.7163C99.9161 15.931 101.574 16.3333 102.603 16.9197C103.687 17.5236 104.227 18.4109 104.227 19.587C104.227 21.0203 103.607 22.1477 102.37 22.964C101.084 23.7973 99.2732 24.2137 96.941 24.2137C93.7727 24.2137 90.9264 23.3176 88.4073 21.5219L90.2103 19.158C92.0303 20.4622 94.2664 21.1182 96.9205 21.1182C99.3229 21.1182 100.524 20.7008 100.524 19.8666C100.524 19.4682 100.048 19.1799 99.0981 19.0114C98.5571 18.9106 97.1839 18.7659 94.9815 18.5765C91.1103 18.2443 89.181 16.907 89.181 14.5518C89.181 13.2086 89.7912 12.1348 91.0064 11.3385C92.2298 10.5422 93.9249 10.1448 96.0922 10.1448C99.3103 10.1448 101.85 10.8266 103.714 12.1864L102.069 14.5523ZM110.803 23.8065H107.318V10.5753H110.803V23.8065ZM131.455 17.0273C131.455 19.0791 130.688 20.7466 129.155 22.0182C127.429 23.4534 125.25 24.1669 122.626 24.1669C120.088 24.1669 117.97 23.4432 116.266 21.9982C114.79 20.7359 114.052 19.1268 114.052 17.1583C114.052 15.2234 114.794 13.6153 116.286 12.3403C117.988 10.8924 120.105 10.1677 122.626 10.1677C125.605 10.1677 127.99 11.0711 129.771 12.8784L126.168 14.2742C125.124 13.531 123.985 13.1551 122.762 13.1551C121.178 13.1551 119.902 13.5335 118.939 14.2898C117.976 15.0481 117.496 16.0031 117.496 17.1578C117.496 18.3096 117.975 19.2705 118.93 20.0341C119.884 20.7977 121.116 21.1796 122.625 21.1796C125.17 21.1796 126.894 20.4003 127.792 18.8331H121.948V16.0197H131.454V17.0273H131.455ZM149.874 23.8065H145.833L138.147 15.0734L138.089 15.0714V23.8065H134.603V10.5753H138.644L146.384 19.3085V10.5753H149.874V23.8065Z" fill="#E5E7EB"/>
<path d="M163.665 9.76172V24.4008H160.303V16.5536C160.303 15.4203 160.276 14.74 160.229 14.5081C160.179 14.2797 160.04 14.1078 159.815 13.989C159.594 13.8721 159.092 13.8142 158.311 13.8142H157.981V12.1077C159.605 11.7258 160.842 10.9427 161.687 9.76172H163.665ZM181.226 14.5539C179.331 13.6369 177.436 13.1815 175.547 13.1815C173.131 13.1815 171.922 13.6018 171.922 14.4502C171.922 14.9231 172.339 15.2289 173.168 15.375C174.371 15.4905 175.581 15.6039 176.795 15.7179C179.076 15.9327 180.734 16.3349 181.765 16.9213C182.844 17.5252 183.386 18.4125 183.386 19.5887C183.386 21.0219 182.766 22.1494 181.526 22.9656C180.245 23.7989 178.439 24.2153 176.1 24.2153C172.932 24.2153 170.089 23.3192 167.566 21.5236L169.366 19.1596C171.189 20.4638 173.429 21.1198 176.083 21.1198C178.483 21.1198 179.686 20.7025 179.686 19.8682C179.686 19.4698 179.211 19.1815 178.257 19.013C177.718 18.9122 176.35 18.7676 174.139 18.5781C170.277 18.246 168.34 16.9086 168.34 14.5534C168.34 13.2103 168.952 12.1364 170.172 11.3401C171.392 10.5439 173.084 10.1465 175.247 10.1465C178.469 10.1465 181.012 10.8283 182.875 12.188L181.226 14.5539ZM199.999 13.5658H194.219V23.8081H190.737V13.5658H184.935V10.577H199.999V13.5658H199.999Z" fill="#FF6600"/>
</g>
<defs>
<clipPath id="clip0_74_5855">
<rect width="200" height="34" fill="white"/>
</clipPath>
</defs>
</svg>
